<?xml version="1.0" encoding="UTF-8"?>
<svg width="14px" height="18px" viewBox="0 0 14 18" version="1.1" xmlns="http://www.w3.org/2000/svg" xmlns:xlink="http://www.w3.org/1999/xlink">
    <!-- Generator: Sketch 50.2 (55047) - http://www.bohemiancoding.com/sketch -->
    <title>Shape</title>
    <desc>Created with Sketch.</desc>
    <defs></defs>
    <g id="Page-1" stroke="none" stroke-width="1" fill="none" fill-rule="evenodd">
        <g id="iPhone-8" transform="translate(-28.000000, -342.000000)" fill="#000000" fill-rule="nonzero">
            <g id="blue-bus151" transform="translate(22.000000, 337.000000)">
                <g id="Group-2">
                    <g id="BusIcon">
                        <path d="M16.1401183,5.25 L9.38003943,5.25 C7.50676457,5.25 6,6.76964286 6,8.65892857 L6,18.8857143 C6,19.5223214 6.50904208,20.0151786 7.11989258,20.0151786 L7.62893467,20.0151786 C7.62893467,20.05625 7.60857298,20.0767857 7.60857298,20.1178571 L7.60857298,21.4321429 C7.60857298,22.0071429 8.0768917,22.4794643 8.64701883,22.4794643 C9.21714596,22.4794643 9.68546468,22.0071429 9.68546468,21.4321429 L9.68546468,20.1383929 C9.68546468,20.0973214 9.68546468,20.05625 9.665103,20.0357143 L10.499932,20.0357143 L14.999864,20.0357143 L15.9772248,20.0357143 C15.9772248,20.0767857 15.9568631,20.0973214 15.9568631,20.1383929 L15.9568631,21.4526786 C15.9568631,22.0276786 16.4251819,22.5 16.995309,22.5 C17.5654361,22.5 18.0337548,22.0276786 18.0337548,21.4526786 L18.0337548,20.1383929 C18.0337548,20.0973214 18.0337548,20.05625 18.0133932,20.0357143 L18.3799035,20.0357143 C19.0111156,20.0357143 19.499796,19.5223214 19.499796,18.90625 L19.499796,8.65892857 C19.5201577,6.76964286 18.0133932,5.25 16.1401183,5.25 Z M10.499932,6.37946429 L14.999864,6.37946429 L14.999864,7.50892857 L10.499932,7.50892857 L10.499932,6.37946429 Z M7.11989258,17.75625 C7.11989258,17.1196429 7.62893467,16.6267857 8.23978516,16.6267857 C8.87099735,16.6267857 9.35967775,17.1401786 9.35967775,17.75625 C9.35967775,18.3928571 8.85063566,18.8857143 8.23978516,18.8857143 C7.62893467,18.8857143 7.11989258,18.3723214 7.11989258,17.75625 Z M17.2600109,18.8857143 C16.6287987,18.8857143 16.1401183,18.3723214 16.1401183,17.75625 C16.1401183,17.1196429 16.6491604,16.6267857 17.2600109,16.6267857 C17.8708614,16.6267857 18.3799035,17.1401786 18.3799035,17.75625 C18.4002651,18.3723214 17.8912231,18.8857143 17.2600109,18.8857143 Z M18.4002651,15.4767857 L7.11989258,15.4767857 L7.11989258,8.65892857 L18.3799035,8.65892857 L18.3799035,15.4767857 L18.4002651,15.4767857 Z" id="Shape"></path>
                    </g>
                </g>
            </g>
        </g>
    </g>
</svg>