<?xml version="1.0" encoding="UTF-8"?>
<svg width="53px" height="33px" viewBox="0 0 53 33" version="1.1" xmlns="http://www.w3.org/2000/svg" xmlns:xlink="http://www.w3.org/1999/xlink">
    <!-- Generator: Sketch 50.2 (55047) - http://www.bohemiancoding.com/sketch -->
    <title>SouthJ14</title>
    <desc>Created with Sketch.</desc>
    <defs>
        <rect id="path-1" x="0" y="0" width="48.75" height="29.25"></rect>
        <filter x="-6.2%" y="-10.3%" width="112.3%" height="120.5%" filterUnits="objectBoundingBox" id="filter-2">
            <feOffset dx="0" dy="0" in="SourceAlpha" result="shadowOffsetOuter1"></feOffset>
            <feGaussianBlur stdDeviation="1" in="shadowOffsetOuter1" result="shadowBlurOuter1"></feGaussianBlur>
            <feColorMatrix values="0 0 0 0 0   0 0 0 0 0   0 0 0 0 0  0 0 0 0.2 0" type="matrix" in="shadowBlurOuter1"></feColorMatrix>
        </filter>
    </defs>
    <g id="Page-1" stroke="none" stroke-width="1" fill="none" fill-rule="evenodd">
        <g id="red-66" transform="translate(-116.000000, -132.000000)">
            <g id="Group-2">
                <g id="BusIcon" transform="translate(7.000000, 0.000000)">
                    <g id="Group">
                        <g id="SouthJ14" transform="translate(111.000000, 134.000000)">
                            <g id="Rectangle-2-Copy-9">
                                <use fill="black" fill-opacity="1" filter="url(#filter-2)" xlink:href="#path-1"></use>
                                <use fill="#FFFFFF" fill-rule="evenodd" xlink:href="#path-1"></use>
                            </g>
                            <path d="M0,26 L48.75,26 L48.75,26 C48.75,28.0710678 47.0710678,29.75 45,29.75 L3.75,29.75 C1.67893219,29.75 2.53632657e-16,28.0710678 0,26 Z" id="Rectangle-2-Copy-10" fill="#BD10E0"></path>
                            <text id="J14-Copy" font-family="Roboto-Medium, Roboto" font-size="12" font-weight="400" letter-spacing="0.428571358" fill="#000000">
                                <tspan x="23" y="18">J14</tspan>
                            </text>
                            <path d="M16.1401183,6 L9.38003943,6 C7.50676457,6 6,7.51964286 6,9.40892857 L6,19.6357143 C6,20.2723214 6.50904208,20.7651786 7.11989258,20.7651786 L7.62893467,20.7651786 C7.62893467,20.80625 7.60857298,20.8267857 7.60857298,20.8678571 L7.60857298,22.1821429 C7.60857298,22.7571429 8.0768917,23.2294643 8.64701883,23.2294643 C9.21714596,23.2294643 9.68546468,22.7571429 9.68546468,22.1821429 L9.68546468,20.8883929 C9.68546468,20.8473214 9.68546468,20.80625 9.665103,20.7857143 L10.499932,20.7857143 L14.999864,20.7857143 L15.9772248,20.7857143 C15.9772248,20.8267857 15.9568631,20.8473214 15.9568631,20.8883929 L15.9568631,22.2026786 C15.9568631,22.7776786 16.4251819,23.25 16.995309,23.25 C17.5654361,23.25 18.0337548,22.7776786 18.0337548,22.2026786 L18.0337548,20.8883929 C18.0337548,20.8473214 18.0337548,20.80625 18.0133932,20.7857143 L18.3799035,20.7857143 C19.0111156,20.7857143 19.499796,20.2723214 19.499796,19.65625 L19.499796,9.40892857 C19.5201577,7.51964286 18.0133932,6 16.1401183,6 Z M10.499932,7.12946429 L14.999864,7.12946429 L14.999864,8.25892857 L10.499932,8.25892857 L10.499932,7.12946429 Z M7.11989258,18.50625 C7.11989258,17.8696429 7.62893467,17.3767857 8.23978516,17.3767857 C8.87099735,17.3767857 9.35967775,17.8901786 9.35967775,18.50625 C9.35967775,19.1428571 8.85063566,19.6357143 8.23978516,19.6357143 C7.62893467,19.6357143 7.11989258,19.1223214 7.11989258,18.50625 Z M17.2600109,19.6357143 C16.6287987,19.6357143 16.1401183,19.1223214 16.1401183,18.50625 C16.1401183,17.8696429 16.6491604,17.3767857 17.2600109,17.3767857 C17.8708614,17.3767857 18.3799035,17.8901786 18.3799035,18.50625 C18.4002651,19.1223214 17.8912231,19.6357143 17.2600109,19.6357143 Z M18.4002651,16.2267857 L7.11989258,16.2267857 L7.11989258,9.40892857 L18.3799035,9.40892857 L18.3799035,16.2267857 L18.4002651,16.2267857 Z" id="Shape-Copy-5" fill="#000000" fill-rule="nonzero"></path>
                        </g>
                    </g>
                </g>
            </g>
        </g>
    </g>
</svg>