<?xml version="1.0" encoding="UTF-8"?>
<svg width="366px" height="12px" viewBox="0 0 366 12" version="1.1" xmlns="http://www.w3.org/2000/svg" xmlns:xlink="http://www.w3.org/1999/xlink">
    <!-- Generator: Sketch 50.2 (55047) - http://www.bohemiancoding.com/sketch -->
    <title>Status Bar White</title>
    <desc>Created with Sketch.</desc>
    <defs></defs>
    <g id="Page-1" stroke="none" stroke-width="1" fill="none" fill-rule="evenodd">
        <g id="iPhone-8" transform="translate(-5.000000, -4.000000)">
            <g id="NavBar">
                <g id="Status-Bar-White">
                    <g id="Status-Bar">
                        <rect id="Background" fill-opacity="0" fill="#000000" x="0" y="0" width="375" height="20"></rect>
                        <g id="Charge" transform="translate(306.200000, 3.200000)">
                            <text id="60-%" font-family="SFProText-Regular, SF Pro Text" font-size="11.2" font-weight="normal" letter-spacing="-0.123199999" fill="#FFFFFF">
                                <tspan x="12" y="11">60 %</tspan>
                            </text>
                            <path d="M3.51716404,9.68130045 L3.51716404,6.83926535 L4.87707931,8.32844553 L3.51716404,9.68130045 L3.51716404,9.68130045 L3.51716404,9.68130045 L3.51716404,9.68130045 Z M4.93950533,4.07232467 L3.51716404,5.5110568 L3.51716404,2.78532178 L4.93950533,4.07232467 L4.93950533,4.07232467 L4.93950533,4.07232467 L4.93950533,4.07232467 Z M3.858825,6.2003851 L5.9693477,4.07232467 L2.82038502,1 L2.74599713,1 L2.74599713,5.27306524 L0.608560214,3.01984744 L0,3.65911279 L2.57180238,6.2003851 L0,8.74127231 L0.608560214,9.38053766 L2.74599713,7.12731985 L2.74599713,11.4 L2.88206342,11.4 L6,8.31997334 L3.858825,6.2003851 L3.858825,6.2003851 Z" id="Bluetooth-Icon" fill="#FFFFFF"></path>
                            <g id="Battery" transform="translate(40.000000, 1.000000)">
                                <rect id="Shape" stroke="#FFFFFF" stroke-width="0.8" opacity="0.5" x="0.4" y="0.8" width="21.6" height="9.6" rx="2.4"></rect>
                                <path d="M2.4,2 L14.4,2 L14.4,9.2 L2.4,9.2 C1.9581722,9.2 1.6,8.8418278 1.6,8.4 L1.6,2.8 C1.6,2.3581722 1.9581722,2 2.4,2 Z" id="Shape" fill="#FFFFFF"></path>
                                <path d="M23.2,3.6 L23.2,3.6 C23.8627417,3.6 24.4,4.1372583 24.4,4.8 L24.4,6.4 C24.4,7.0627417 23.8627417,7.6 23.2,7.6 L23.2,3.6 Z" id="Shape" fill="#FFFFFF" opacity="0.5"></path>
                            </g>
                        </g>
                        <path d="M90.9957516,7.48707945 C92.9355242,7.48707945 94.7033612,8.18577534 96.0588529,9.33146301 L97,8.31548493 C95.394602,6.95281096 93.2978883,6 90.9957516,6 C88.6971136,6 86.6033987,6.94991781 85,8.30825205 L85.9391478,9.32567671 C87.2936399,8.18336438 89.0584781,7.48707945 90.9957516,7.48707945 L90.9957516,7.48707945 Z M90.9957516,9.88611507 C92.1583156,9.88611507 93.2204173,10.2988712 94.0396101,10.9787616 L95.0352368,9.90347397 C93.9516431,8.99406027 92.5421717,8.4 90.9957516,8.4 C89.4523304,8.4 88.0438586,8.9926137 86.9612645,9.89913425 L87.9553917,10.9758685 C88.7740847,10.2974247 89.834687,9.88611507 90.9957516,9.88611507 L90.9957516,9.88611507 Z M93.0434837,11.9613808 C92.4891916,11.5114959 91.7754592,11.2 90.9952518,11.2 C90.2165438,11.2 89.5038111,11.5110137 88.9495189,11.9589699 L90.9952518,14.1736767 L93.0434837,11.9613808 L93.0434837,11.9613808 Z" id="Wifi-icon" fill="#FFFFFF"></path>
                        <text id="OSDESIGN" font-family="SFProText-Regular, SF Pro Text" font-size="11" font-weight="normal" letter-spacing="-0.121" fill="#FFFFFF">
                            <tspan x="23" y="14">OSDESIGN</tspan>
                        </text>
                        <text id="9:41-AM" font-family="SFProText-Semibold, SF Pro Text" font-size="11" font-weight="500" letter-spacing="-0.121" fill="#FFFFFF">
                            <tspan x="167" y="14">9:41 AM</tspan>
                        </text>
                        <path d="M18.4,5.6 L19.2,5.6 C19.7522847,5.6 20.2,6.04771525 20.2,6.6 L20.2,13.8 C20.2,14.3522847 19.7522847,14.8 19.2,14.8 L18.4,14.8 C17.8477153,14.8 17.4,14.3522847 17.4,13.8 L17.4,6.6 C17.4,6.04771525 17.8477153,5.6 18.4,5.6 Z M14.4,7.6 L15.2,7.6 C15.7522847,7.6 16.2,8.04771525 16.2,8.6 L16.2,13.8 C16.2,14.3522847 15.7522847,14.8 15.2,14.8 L14.4,14.8 C13.8477153,14.8 13.4,14.3522847 13.4,13.8 L13.4,8.6 C13.4,8.04771525 13.8477153,7.6 14.4,7.6 Z M10.4,9.6 L11.2,9.6 C11.7522847,9.6 12.2,10.0477153 12.2,10.6 L12.2,13.8 C12.2,14.3522847 11.7522847,14.8 11.2,14.8 L10.4,14.8 C9.84771525,14.8 9.4,14.3522847 9.4,13.8 L9.4,10.6 C9.4,10.0477153 9.84771525,9.6 10.4,9.6 Z M6.4,10.8 L7.2,10.8 C7.75228475,10.8 8.2,11.2477153 8.2,11.8 L8.2,13.8 C8.2,14.3522847 7.75228475,14.8 7.2,14.8 L6.4,14.8 C5.84771525,14.8 5.4,14.3522847 5.4,13.8 L5.4,11.8 C5.4,11.2477153 5.84771525,10.8 6.4,10.8 Z" id="Signal-Icon" fill="#FFFFFF"></path>
                    </g>
                </g>
            </g>
        </g>
    </g>
</svg>